<svg width="236" height="150" viewBox="0 0 236 150" fill="none" xmlns="http://www.w3.org/2000/svg">
<g clip-path="url(#clip0)">
<rect width="236" height="150" rx="4" fill="#C7DDEA"/>
<path d="M101.734 122.935H88.519C88.519 115.69 94.4431 109.753 101.785 109.753V122.935H101.734Z" fill="#711470"/>
<path d="M101.734 122.935H88.519V149.499C88.519 153.121 91.5064 156.089 95.1519 156.089C98.7975 156.089 101.785 153.121 101.785 149.499V122.935H101.734Z" fill="#F6C09C"/>
<path d="M101.785 122.935H88.519V127.664H101.785V122.935Z" fill="#EE927E"/>
<path d="M94.0886 157.146C98.3391 157.146 101.785 153.722 101.785 149.499C101.785 145.275 98.3391 141.852 94.0886 141.852C89.8381 141.852 86.3924 145.275 86.3924 149.499C86.3924 153.722 89.8381 157.146 94.0886 157.146Z" fill="#F6C09C"/>
<path d="M116.215 122.935H129.481C129.481 115.69 123.557 109.753 116.215 109.753V122.935Z" fill="#711470"/>
<path d="M116.215 122.935H129.481V149.499C129.481 153.121 126.494 156.089 122.848 156.089C119.203 156.089 116.215 153.121 116.215 149.499V122.935Z" fill="#F6C09C"/>
<path d="M116.155 127.655H129.421V122.926H116.155V127.655Z" fill="#EE927E"/>
<path d="M123.861 157.146C128.111 157.146 131.557 153.722 131.557 149.499C131.557 145.275 128.111 141.852 123.861 141.852C119.61 141.852 116.165 145.275 116.165 149.499C116.165 153.722 119.61 157.146 123.861 157.146Z" fill="#F6C09C"/>
<path d="M109.177 134.355H95.8608V151.662H109.177V134.355Z" fill="#00757B"/>
<path d="M109.38 136.166C117.853 136.166 124.722 129.341 124.722 120.922C124.722 112.503 117.853 105.678 109.38 105.678C100.907 105.678 94.038 112.503 94.038 120.922C94.038 129.341 100.907 136.166 109.38 136.166Z" fill="#8F278E"/>
<path d="M109.38 127.664C102.392 127.664 96.4684 123.035 94.6456 116.646C94.2405 118.004 94.038 119.463 94.038 120.922C94.038 129.375 100.924 136.166 109.38 136.166C117.835 136.166 124.722 129.324 124.722 120.922C124.722 119.463 124.519 118.004 124.114 116.646C122.291 122.985 116.367 127.664 109.38 127.664Z" fill="#711470"/>
<path d="M109.38 114.784C106.241 114.784 103.658 112.219 103.658 109.099V101.352C103.658 98.2323 106.241 95.6664 109.38 95.6664C112.519 95.6664 115.101 98.2323 115.101 101.352V109.099C115.101 112.219 112.519 114.784 109.38 114.784Z" fill="#EE927E"/>
<path d="M109.38 109.753C106.241 109.753 103.658 107.188 103.658 104.068V93.6037C103.658 90.4845 106.241 87.9186 109.38 87.9186C112.519 87.9186 115.101 90.4845 115.101 93.6037V104.068C115.101 107.188 112.519 109.753 109.38 109.753Z" fill="#E9686A"/>
<path d="M87.3545 87.164C75.962 75.8441 75.962 57.3298 87.3545 46.0602L113.076 20.5025C124.468 9.1826 143.101 9.1826 154.443 20.5025C165.835 31.8224 165.835 50.3366 154.443 61.6062L128.722 87.164C117.38 98.4838 98.7469 98.4838 87.3545 87.164Z" fill="#DD2B26"/>
<path d="M138.038 75.1397C141.198 75.1397 143.759 72.5944 143.759 69.4546C143.759 66.3148 141.198 63.7695 138.038 63.7695C134.878 63.7695 132.316 66.3148 132.316 69.4546C132.316 72.5944 134.878 75.1397 138.038 75.1397Z" fill="#EE927E"/>
<path d="M80.7215 75.1397C83.8814 75.1397 86.443 72.5944 86.443 69.4546C86.443 66.3148 83.8814 63.7695 80.7215 63.7695C77.5616 63.7695 75 66.3148 75 69.4546C75 72.5944 77.5616 75.1397 80.7215 75.1397Z" fill="#EE927E"/>
<path d="M130.8 95.5126C142.624 83.7635 142.624 64.7145 130.8 52.9654C118.976 41.2163 99.8045 41.2163 87.9801 52.9654C76.1557 64.7145 76.1557 83.7635 87.9801 95.5126C99.8045 107.262 118.976 107.262 130.8 95.5126Z" fill="#F6C09C"/>
<path d="M109.481 91.9938C94.8481 91.9938 82.595 81.6298 79.8101 67.895C79.3544 69.9074 79.1519 72.0205 79.1519 74.1838C79.1519 90.7863 92.7215 104.27 109.43 104.27C126.139 104.27 139.709 90.7863 139.709 74.1838C139.709 72.1211 139.506 70.1087 139.101 68.1969C136.114 81.831 124.013 91.9938 109.481 91.9938Z" fill="#F5B296"/>
<path d="M90.4937 65.1279C90.7468 75.2907 99.1013 83.441 109.43 83.441C119.76 83.441 128.063 75.2907 128.367 65.1279H90.4937Z" fill="white"/>
<path d="M96.5696 60.7509C96.5696 60.0465 97.1266 59.4931 97.8354 59.4931H100.367C101.076 59.4931 101.633 60.0465 101.633 60.7509C101.633 61.4552 101.076 62.0086 100.367 62.0086H97.8354C97.1266 62.0086 96.5696 61.4552 96.5696 60.7509Z" fill="#002334"/>
<path d="M101.329 57.1788H96.7722C95.8101 57.1788 95 56.3739 95 55.418C95 54.4621 95.8101 53.6571 96.7722 53.6571H101.329C102.291 53.6571 103.101 54.4621 103.101 55.418C103.152 56.3739 102.342 57.1788 101.329 57.1788Z" fill="#EE927E"/>
<path d="M101.329 54.5627H96.7722C95.8101 54.5627 95 53.7577 95 52.8018C95 51.8459 95.8101 51.041 96.7722 51.041H101.329C102.291 51.041 103.101 51.8459 103.101 52.8018C103.152 53.7577 102.342 54.5627 101.329 54.5627Z" fill="#002334"/>
<path d="M117.177 60.7509C117.177 60.0465 117.734 59.4931 118.443 59.4931H120.975C121.684 59.4931 122.24 60.0465 122.24 60.7509C122.24 61.4552 121.684 62.0086 120.975 62.0086H118.443C117.785 62.0086 117.177 61.4552 117.177 60.7509Z" fill="#002334"/>
<path d="M121.987 57.1788H117.43C116.468 57.1788 115.658 56.3739 115.658 55.418C115.658 54.4621 116.468 53.6571 117.43 53.6571H121.987C122.949 53.6571 123.76 54.4621 123.76 55.418C123.76 56.3739 122.949 57.1788 121.987 57.1788Z" fill="#EE927E"/>
<path d="M121.987 54.5627H117.43C116.468 54.5627 115.658 53.7577 115.658 52.8018C115.658 51.8459 116.468 51.041 117.43 51.041H121.987C122.949 51.041 123.76 51.8459 123.76 52.8018C123.76 53.7577 122.949 54.5627 121.987 54.5627Z" fill="#002334"/>
<path d="M118.844 42.1221C119.859 37.8496 117.196 33.5682 112.896 32.5593C108.596 31.5505 104.288 34.1962 103.272 38.4687C102.257 42.7412 104.92 47.0226 109.22 48.0314C113.519 49.0403 117.828 46.3946 118.844 42.1221Z" fill="#002334"/>
<path d="M125.837 45.1588C126.506 42.3465 124.753 39.5284 121.923 38.8643C119.092 38.2003 116.256 39.9417 115.588 42.754C114.92 45.5663 116.672 48.3844 119.503 49.0485C122.333 49.7125 125.169 47.971 125.837 45.1588Z" fill="#002334"/>
<path d="M103.389 47.528C105.378 46.7092 106.323 44.443 105.499 42.4663C104.675 40.4896 102.394 39.551 100.405 40.3697C98.4153 41.1885 97.4706 43.4547 98.2947 45.4314C99.1187 47.4081 101.399 48.3468 103.389 47.528Z" fill="#002334"/>
<path d="M95.8608 128.419V134.406C95.8608 141.65 101.835 147.637 109.177 147.637C116.468 147.637 122.494 141.701 122.494 134.406V128.419H95.8608Z" fill="#009E9E"/>
<path d="M122.443 128.419H95.8608V132.544H122.443V128.419Z" fill="#00757B"/>
<path d="M122.494 134.355H109.177V151.662H122.494V134.355Z" fill="#009E9E"/>
</g>
<defs>
<clipPath id="clip0">
<rect width="236" height="150" fill="white"/>
</clipPath>
</defs>
</svg>
