<svg width="236" height="150" viewBox="0 0 236 150" fill="none" xmlns="http://www.w3.org/2000/svg">
<g clip-path="url(#clip0)">
<rect width="236" height="150" rx="4" fill="#FAB131"/>
<path d="M102.274 139.813C89.3644 139.813 78.8828 150.297 78.8828 163.21V192.294H102.274V139.813Z" fill="#CC1E53"/>
<path d="M134.726 139.813C147.636 139.813 158.117 150.297 158.117 163.21V192.294H134.726V139.813Z" fill="#CC1E53"/>
<path d="M147.162 159.419C147.162 143.663 134.371 130.869 118.618 130.869C102.985 130.869 90.3119 143.426 90.0751 159.005H89.8974V170.555H146.984V159.36H147.162V159.419Z" fill="#EE2761"/>
<path d="M118.559 56.4115C130.268 56.4115 139.759 46.9174 139.759 35.2057C139.759 23.4941 130.268 14 118.559 14C106.851 14 97.3589 23.4941 97.3589 35.2057C97.3589 46.9174 106.851 56.4115 118.559 56.4115Z" fill="#002334"/>
<path d="M118.559 114.283C139.85 114.283 157.11 97.0186 157.11 75.7217C157.11 54.4249 139.85 37.1605 118.559 37.1605C97.2679 37.1605 80.0079 54.4249 80.0079 75.7217C80.0079 97.0186 97.2679 114.283 118.559 114.283Z" fill="#002334"/>
<path d="M95.1894 91.0745C97.9693 89.9227 99.2894 86.7348 98.1379 83.9542C96.9864 81.1736 93.7993 79.8531 91.0194 81.0049C88.2395 82.1567 86.9194 85.3446 88.0709 88.1253C89.2224 90.9059 92.4095 92.2263 95.1894 91.0745Z" fill="#79483E"/>
<path d="M146.236 91.0694C149.016 89.9176 150.336 86.7297 149.184 83.949C148.033 81.1684 144.846 79.8479 142.066 80.9997C139.286 82.1515 137.966 85.3394 139.117 88.1201C140.269 90.9007 143.456 92.2212 146.236 91.0694Z" fill="#79483E"/>
<path d="M118.915 143.012C113.881 143.012 109.736 138.865 109.736 133.83V115.764C109.736 110.729 113.881 106.583 118.915 106.583C123.948 106.583 128.093 110.729 128.093 115.764V133.83C128.093 138.865 124.007 143.012 118.915 143.012Z" fill="#63382F"/>
<path d="M118.915 130.632C113.881 130.632 109.736 126.485 109.736 121.45V103.384C109.736 98.3491 113.881 94.2028 118.915 94.2028C123.948 94.2028 128.093 98.3491 128.093 103.384V121.45C128.093 126.544 124.007 130.632 118.915 130.632Z" fill="#532C24"/>
<path d="M118.559 121.865C104.643 121.865 93.2136 110.433 93.2136 96.5129V81.2897C93.2136 67.3105 104.643 55.9376 118.559 55.9376C132.476 55.9376 143.905 67.3698 143.905 81.2897V96.5129C143.905 110.433 132.476 121.865 118.559 121.865Z" fill="#A16356"/>
<path d="M118.559 112.743C104.643 112.743 93.2136 101.311 93.2136 87.3908V96.5128C93.2136 110.433 104.643 121.865 118.559 121.865C132.476 121.865 143.905 110.433 143.905 96.5128V87.3908C143.905 101.311 132.476 112.743 118.559 112.743Z" fill="#92594D"/>
<path d="M101.919 89.6417C102.156 98.6453 109.499 105.872 118.559 105.872C127.62 105.872 134.963 98.6453 135.2 89.6417H101.919Z" fill="white"/>
<path d="M109.262 78.3873H101.8C100.083 78.3873 98.721 76.9656 98.721 75.3071C98.721 73.5893 100.142 72.2269 101.8 72.2269H109.262C110.979 72.2269 112.341 73.6485 112.341 75.3071C112.341 76.9656 110.979 78.3873 109.262 78.3873Z" fill="#79483E"/>
<path d="M109.262 74.004H101.8C100.083 74.004 98.721 72.5823 98.721 70.9238C98.721 69.206 100.142 67.8436 101.8 67.8436H109.262C110.979 67.8436 112.341 69.2652 112.341 70.9238C112.341 72.6416 110.979 74.004 109.262 74.004Z" fill="#002334"/>
<path d="M135.318 78.3873H127.857C126.139 78.3873 124.777 76.9656 124.777 75.3071C124.777 73.5893 126.198 72.2269 127.857 72.2269H135.318C137.035 72.2269 138.397 73.6485 138.397 75.3071C138.457 76.9656 137.035 78.3873 135.318 78.3873Z" fill="#79483E"/>
<path d="M135.318 74.004H127.857C126.139 74.004 124.777 72.5823 124.777 70.9238C124.777 69.206 126.198 67.8436 127.857 67.8436H135.318C137.035 67.8436 138.397 69.2652 138.397 70.9238C138.457 72.6416 137.035 74.004 135.318 74.004Z" fill="#002334"/>
<path d="M105.353 86.0284C104.169 86.0284 103.222 85.0807 103.222 83.896V81.7636C103.222 80.5789 104.169 79.6312 105.353 79.6312C106.538 79.6312 107.485 80.5789 107.485 81.7636V83.896C107.485 85.0807 106.538 86.0284 105.353 86.0284Z" fill="#002334"/>
<path d="M131.765 86.0284C130.581 86.0284 129.633 85.0807 129.633 83.896V81.7636C129.633 80.5789 130.581 79.6312 131.765 79.6312C132.949 79.6312 133.897 80.5789 133.897 81.7636V83.896C133.897 85.0807 132.949 86.0284 131.765 86.0284Z" fill="#002334"/>
</g>
<defs>
<clipPath id="clip0">
<rect width="236" height="150" fill="white"/>
</clipPath>
</defs>
</svg>
