<svg width="236" height="150" viewBox="0 0 236 150" fill="none" xmlns="http://www.w3.org/2000/svg">
<g clip-path="url(#clip0)">
<rect width="236" height="150" rx="4" fill="#F17949"/>
<path d="M155.629 98.8176V185.79H191.033V130.322C191.033 112.927 175.177 98.8176 155.629 98.8176Z" fill="#005C89"/>
<path d="M78.4045 98.8176V185.79H43V130.322C43 112.927 58.8564 98.8176 78.4045 98.8176Z" fill="#005C89"/>
<path d="M150.424 170.496H85.667C64.1822 170.496 46.7523 154.986 46.7523 135.868C46.7523 116.751 64.1822 101.241 85.667 101.241H150.424C171.909 101.241 189.339 116.751 189.339 135.868C189.339 154.986 171.909 170.496 150.424 170.496Z" fill="#0980B7"/>
<path d="M150.666 147.77H85.9091C68.7212 147.77 54.1963 137.861 48.9916 124.128C47.5391 127.79 46.6918 131.722 46.6918 135.815C46.6918 154.932 64.1217 170.442 85.6065 170.442H150.363C171.848 170.442 189.278 154.932 189.278 135.815C189.278 131.991 188.552 128.275 187.281 124.829C181.895 138.184 167.551 147.77 150.666 147.77Z" fill="#0B76A9"/>
<path d="M146.672 54.8197C150.983 54.8197 154.479 51.7094 154.479 47.8726C154.479 44.0359 150.983 40.9256 146.672 40.9256C142.36 40.9256 138.864 44.0359 138.864 47.8726C138.864 51.7094 142.36 54.8197 146.672 54.8197Z" fill="#EE927E"/>
<path d="M89.4192 54.8197C93.731 54.8197 97.2263 51.7094 97.2263 47.8726C97.2263 44.0359 93.731 40.9256 89.4192 40.9256C85.1074 40.9256 81.6121 44.0359 81.6121 47.8726C81.6121 51.7094 85.1074 54.8197 89.4192 54.8197Z" fill="#EE927E"/>
<path d="M95.4107 47.3879C101.026 47.3879 105.578 43.3373 105.578 38.3406C105.578 33.3439 101.026 29.2933 95.4107 29.2933C89.7954 29.2933 85.2433 33.3439 85.2433 38.3406C85.2433 43.3373 89.7954 47.3879 95.4107 47.3879Z" fill="#ACE0F3"/>
<path d="M140.68 47.3879C146.295 47.3879 150.847 43.3373 150.847 38.3406C150.847 33.3439 146.295 29.2933 140.68 29.2933C135.065 29.2933 130.513 33.3439 130.513 38.3406C130.513 43.3373 135.065 47.3879 140.68 47.3879Z" fill="#ACE0F3"/>
<path d="M146.369 47.1187V46.1493C146.369 32.363 133.599 21 118.045 21C102.492 21 89.7218 32.363 89.7218 46.2032V47.1725C82.3383 53.6349 77.7388 62.6822 77.7388 72.645V102.049H158.413V72.645C158.352 62.6822 153.752 53.6349 146.369 47.1187Z" fill="#F6C09C"/>
<path d="M127.668 40.8717H122.524C120.95 40.8717 119.679 39.7408 119.679 38.3407C119.679 36.9405 120.95 35.8096 122.524 35.8096H127.668C129.242 35.8096 130.513 36.9405 130.513 38.3407C130.452 39.7408 129.181 40.8717 127.668 40.8717Z" fill="#EE927E"/>
<path d="M125.066 48.3034C123.916 48.3034 123.008 47.4956 123.008 46.4724V43.6721C123.008 42.6489 123.916 41.8411 125.066 41.8411C126.216 41.8411 127.123 42.6489 127.123 43.6721V46.4724C127.123 47.4956 126.216 48.3034 125.066 48.3034Z" fill="#002334"/>
<path d="M127.668 37.5328H122.524C120.95 37.5328 119.679 36.4019 119.679 35.0017C119.679 33.6016 120.95 32.4706 122.524 32.4706H127.668C129.242 32.4706 130.513 33.6016 130.513 35.0017C130.452 36.4019 129.181 37.5328 127.668 37.5328Z" fill="#ACE0F3"/>
<path d="M113.627 40.8717H108.483C106.91 40.8717 105.639 39.7408 105.639 38.3407C105.639 36.9405 106.91 35.8096 108.483 35.8096H113.627C115.201 35.8096 116.472 36.9405 116.472 38.3407C116.411 39.7408 115.14 40.8717 113.627 40.8717Z" fill="#EE927E"/>
<path d="M111.025 48.3034C109.875 48.3034 108.967 47.4956 108.967 46.4724V43.6721C108.967 42.6489 109.875 41.8411 111.025 41.8411C112.175 41.8411 113.083 42.6489 113.083 43.6721V46.4724C113.083 47.4956 112.175 48.3034 111.025 48.3034Z" fill="#002334"/>
<path d="M113.627 37.5328H108.483C106.91 37.5328 105.639 36.4019 105.639 35.0017C105.639 33.6016 106.91 32.4706 108.483 32.4706H113.627C115.201 32.4706 116.472 33.6016 116.472 35.0017C116.411 36.4019 115.14 37.5328 113.627 37.5328Z" fill="#ACE0F3"/>
<path d="M118.045 77.5456C128.334 77.5456 136.686 70.1139 136.686 60.9589H99.4051C99.4051 70.1139 107.757 77.5456 118.045 77.5456Z" fill="white"/>
<path d="M133.115 50.6191H118.651H117.44H102.976C96.3791 50.6191 91.0533 55.3582 91.0533 61.2282V64.5132H111.812C114.596 64.5132 117.017 63.0053 118.106 60.9051C119.195 63.0592 121.556 64.5132 124.4 64.5132H145.159V61.2282C145.038 55.4121 139.712 50.6191 133.115 50.6191Z" fill="#ACE0F3"/>
<path d="M158.413 92.3013H77.7388V102.049H158.413V92.3013Z" fill="#00A8C7"/>
<path d="M158.413 87.2391H77.7388V92.3552H158.413V87.2391Z" fill="#EE927E"/>
<path d="M119.377 92.3013H116.774V102.049H119.377V92.3013Z" fill="#086794"/>
<path d="M111.872 99.3022C113.176 99.3022 114.233 98.3619 114.233 97.2019C114.233 96.042 113.176 95.1017 111.872 95.1017C110.569 95.1017 109.512 96.042 109.512 97.2019C109.512 98.3619 110.569 99.3022 111.872 99.3022Z" fill="white"/>
<path d="M119.316 102.103H116.653V163.495H119.316V102.103Z" fill="#0A6E9E"/>
<path d="M113.325 113.466C113.325 114.273 112.599 114.92 111.691 114.92C110.783 114.92 110.057 114.273 110.057 113.466C110.057 112.658 110.783 112.012 111.691 112.012C112.599 112.012 113.325 112.712 113.325 113.466Z" fill="white"/>
<path d="M113.325 126.283C113.325 127.09 112.599 127.737 111.691 127.737C110.783 127.737 110.057 127.09 110.057 126.283C110.057 125.475 110.783 124.829 111.691 124.829C112.599 124.829 113.325 125.475 113.325 126.283Z" fill="white"/>
<path d="M113.325 139.1C113.325 139.907 112.599 140.554 111.691 140.554C110.783 140.554 110.057 139.907 110.057 139.1C110.057 138.292 110.783 137.646 111.691 137.646C112.599 137.646 113.325 138.292 113.325 139.1Z" fill="white"/>
</g>
<defs>
<clipPath id="clip0">
<rect width="236" height="150" fill="white"/>
</clipPath>
</defs>
</svg>
